<svg width="213" height="39" viewBox="0 0 213 39" fill="none" xmlns="http://www.w3.org/2000/svg">
<rect width="213" height="39" fill="#7D7D7D"/>
<g id="1920 955">
<rect width="1920" height="955" transform="translate(-707 -189)" fill="#212121"/>
<g id="Frame 4550" filter="url(#filter0_d_0_1)">
<rect id="Rectangle 4277" x="-98" y="-78" width="702" height="782" rx="20" fill="white"/>
<g id="Group 4487">
<g id="Group 4486">
<g id="DIE DIE">
<path d="M1.08572 38.5022V8.75545L0 3.31728L1.08572 0H17.263C19.8687 0 22.3659 0.253782 24.7545 0.761344C27.1793 1.23265 29.3326 2.13901 31.2146 3.48043C33.1327 4.82184 34.6346 6.74333 35.7203 9.24489C36.8422 11.7464 37.4032 14.9912 37.4032 18.9792C37.4032 22.9672 36.8422 26.2482 35.7203 28.8223C34.5984 31.3601 33.0784 33.336 31.1603 34.7499C29.2422 36.1638 27.0707 37.1427 24.6459 37.6865C22.2573 38.2303 19.7964 38.5022 17.263 38.5022H1.08572ZM10.9658 29.8012H17.263C20.4478 29.8012 22.8907 28.9673 24.5916 27.2996C26.2926 25.5957 27.1431 22.8222 27.1431 18.9792C27.1431 15.1362 26.2745 12.4715 24.5373 10.9851C22.8364 9.46241 20.4116 8.70107 17.263 8.70107H10.9658V29.8012Z" fill="black"/>
<path d="M43.378 38.5022V8.70107L42.8352 3.2629L43.378 0H53.2038V38.5022H43.378Z" fill="black"/>
<path d="M60.7793 38.5022L59.6936 35.2393L60.7793 29.8012V0H87.651L90.3653 1.63145L86.7824 9.24489L81.8966 8.70107H70.5508V14.6831H85.1538V23.1122H78.748L70.5508 22.5684V29.8012H86.7824L93.2424 35.0218L90.0396 38.5022H60.7793Z" fill="black"/>
<path d="M105.335 38.5022V8.75545L104.249 3.31728L105.335 0H121.512C124.118 0 126.615 0.253781 129.004 0.761344C131.429 1.23265 133.582 2.13901 135.464 3.48043C137.382 4.82184 138.884 6.74333 139.97 9.24489C141.091 11.7464 141.652 14.9912 141.652 18.9792C141.652 22.9672 141.091 26.2482 139.97 28.8223C138.848 31.3601 137.328 33.336 135.41 34.7499C133.491 36.1638 131.32 37.1427 128.895 37.6865C126.507 38.2303 124.046 38.5022 121.512 38.5022H105.335ZM115.215 29.8012H121.512C124.697 29.8012 127.14 28.9673 128.841 27.2996C130.542 25.5957 131.392 22.8222 131.392 18.9792C131.392 15.1362 130.524 12.4715 128.787 10.9851C127.086 9.46241 124.661 8.70107 121.512 8.70107H115.215V29.8012Z" fill="black"/>
<path d="M147.627 38.5022V8.70107L147.084 3.2629L147.627 0H157.453V38.5022H147.627Z" fill="black"/>
<path d="M165.029 38.5022L163.943 35.2393L165.029 29.8012V0H191.9L194.615 1.63145L191.032 9.24489L186.146 8.70107H174.8V14.6831H189.403V23.1122H182.997L174.8 22.5684V29.8012H191.032L197.492 35.0218L194.289 38.5022H165.029Z" fill="black"/>
</g>
<path id="Union" fill-rule="evenodd" clip-rule="evenodd" d="M206.95 34.7773L203.374 38.3525L200.899 35.8775L204.475 32.3022L200.899 28.727L203.374 26.252L206.95 29.8272L210.525 26.252L213 28.727L209.425 32.3022L213 35.8775L210.525 38.3525L206.95 34.7773Z" fill="black"/>
<path id="Union_2" fill-rule="evenodd" clip-rule="evenodd" d="M206.95 21.5253L203.374 25.1006L200.899 22.6255L204.475 19.0503L200.899 15.475L203.374 13L206.95 16.5753L210.525 13L213 15.475L209.425 19.0503L213 22.6255L210.525 25.1006L206.95 21.5253Z" fill="black"/>
</g>
</g>
</g>
</g>
<defs>
<filter id="filter0_d_0_1" x="-102" y="-78" width="710" height="790" filterUnits="userSpaceOnUse" color-interpolation-filters="sRGB">
<feFlood flood-opacity="0" result="BackgroundImageFix"/>
<feColorMatrix in="SourceAlpha" type="matrix" values="0 0 0 0 0 0 0 0 0 0 0 0 0 0 0 0 0 0 127 0" result="hardAlpha"/>
<feOffset dy="4"/>
<feGaussianBlur stdDeviation="2"/>
<feComposite in2="hardAlpha" operator="out"/>
<feColorMatrix type="matrix" values="0 0 0 0 0 0 0 0 0 0 0 0 0 0 0 0 0 0 0.25 0"/>
<feBlend mode="normal" in2="BackgroundImageFix" result="effect1_dropShadow_0_1"/>
<feBlend mode="normal" in="SourceGraphic" in2="effect1_dropShadow_0_1" result="shape"/>
</filter>
</defs>
</svg>
