<svg width="101" height="100" viewBox="0 0 101 100" fill="none" xmlns="http://www.w3.org/2000/svg">
<rect width="101" height="100" rx="5" fill="url(#paint0_linear_428_1694)"/>
<path d="M22.65 80.64H24.01V88.14H22.65V80.64ZM32.2663 85.28C32.2663 84.47 31.8363 83.9 31.2363 83.9C30.6063 83.9 30.1563 84.54 30.1563 85.26V88.14H28.7963V85.28C28.7963 84.47 28.3863 83.9 27.7863 83.9C27.1463 83.9 26.6963 84.5 26.6963 85.3V88.14H25.3363V82.77H26.6963V83.68C26.9863 83.16 27.5363 82.8 28.0263 82.8C28.6563 82.8 29.3063 83.24 29.5863 83.87C29.9563 83.24 30.6663 82.8 31.3063 82.8C32.6663 82.8 33.6263 83.82 33.6263 85.26V88.14H32.2663V85.28ZM37.2287 87.09C37.9887 87.09 38.6087 86.39 38.6187 85.48C38.6087 84.57 37.9887 83.87 37.2287 83.87C36.4387 83.87 35.9187 84.5 35.9187 85.48C35.9187 86.45 36.4387 87.09 37.2287 87.09ZM34.5587 85.48C34.5587 83.9 35.6087 82.78 37.0987 82.78C37.6587 82.78 38.2187 83.03 38.6187 83.53V82.77H39.9787V88.14L38.6187 88.15V87.42C38.2187 87.92 37.6587 88.17 37.0987 88.17C35.6087 88.17 34.5587 87.06 34.5587 85.48ZM43.5759 87.06C44.4359 87.06 44.9959 86.32 44.9959 85.45C44.9959 84.6 44.4359 83.86 43.5759 83.86C42.7959 83.86 42.2859 84.48 42.2859 85.45C42.2859 86.43 42.7959 87.06 43.5759 87.06ZM40.9259 85.46C40.9259 83.88 41.9759 82.77 43.4659 82.77C43.8959 82.77 44.5759 82.94 44.9959 83.51V82.77H46.3559V87.82C46.3459 89.32 45.3259 90.38 43.6159 90.38C42.6959 90.38 41.7859 90.11 41.2759 89.28L42.3159 88.53C42.7159 89.05 43.0259 89.21 43.6159 89.21C44.5259 89.21 44.9859 88.72 44.9959 88.02V87.4C44.5059 88 43.8959 88.16 43.4659 88.16C41.9759 88.16 40.9259 87.04 40.9259 85.46ZM50.9677 84.97C50.8677 84.45 50.4677 83.87 49.7077 83.87C48.9877 83.87 48.4577 84.39 48.3477 84.97H50.9677ZM47.0977 85.48C47.0977 83.89 48.1677 82.77 49.6977 82.77C51.3877 82.77 51.9277 84.16 51.9577 84.22C52.2777 84.91 52.1777 85.76 52.1777 85.93H48.3477C48.4677 86.61 49.0977 87.06 49.7077 87.06C50.5777 87.06 50.8577 86.56 50.8677 86.54L51.9677 86.97C51.9677 86.97 51.4677 88.17 49.6977 88.17C48.1677 88.17 47.0977 87.06 47.0977 85.48ZM60.958 80.64V81.8H56.888V83.7H60.428V84.86H56.888V86.98H60.958V88.14H55.528V80.64H60.958ZM63.2945 83.68C63.5945 83.14 64.2245 82.76 64.8245 82.76V83.96C63.8645 83.96 63.2945 84.87 63.2945 85.55V88.14H61.9545V82.77H63.2945V83.68ZM67.0152 83.68C67.3152 83.14 67.9452 82.76 68.5452 82.76V83.96C67.5852 83.96 67.0152 84.87 67.0152 85.55V88.14H65.6752V82.77H67.0152V83.68ZM71.4755 87.07C72.2455 87.07 72.7355 86.45 72.7355 85.48C72.7355 84.5 72.2455 83.87 71.4755 83.87C70.7055 83.87 70.2155 84.5 70.2155 85.48C70.2155 86.45 70.7055 87.07 71.4755 87.07ZM68.8555 85.48C68.8555 83.89 69.9355 82.77 71.4755 82.77C73.0155 82.77 74.0955 83.89 74.0955 85.48C74.0955 87.06 73.0155 88.18 71.4755 88.18C69.9355 88.18 68.8555 87.06 68.8555 85.48ZM76.2242 83.68C76.5242 83.14 77.1542 82.76 77.7542 82.76V83.96C76.7942 83.96 76.2242 84.87 76.2242 85.55V88.14H74.8842V82.77H76.2242V83.68Z" fill="black"/>
<path fill-rule="evenodd" clip-rule="evenodd" d="M59.53 18.8723C61.5113 12.0895 64.5481 4.83266 67.637 9.46012C72.6034 16.9001 73.8989 20.8285 75.7077 27.0451C80.5521 31.3912 83.7883 36.9863 84.6335 43.1817C86.0019 45.5222 87.7839 46.8347 92.2433 49.3827L89.0074 51.9104C89.9512 52.4958 91.0197 53.1174 92.2433 53.8166L87.7349 56.3361L90.7654 58.7033C86.614 58.7033 82.7517 60.4615 77.4067 64.1633C71.09 70.7653 61.3258 75 50.368 75C40.1157 75 30.9083 71.293 24.5916 65.4085C18.3086 60.8547 14.0702 58.7033 9.47794 58.7033L12.5084 56.3361L8 53.8166C9.22362 53.1174 10.2922 52.4958 11.2359 51.9104L8 49.3827C13.2813 46.3651 14.8074 45.0804 16.3386 41.7687C17.3593 36.6098 20.0476 31.9159 23.9296 28.0795C25.9086 21.2449 27.0642 17.3042 32.3003 9.46012C35.4163 4.79222 38.4791 12.2172 40.4591 19.05C43.5975 18.2712 46.9238 17.8529 50.368 17.8529C53.5403 17.8529 56.6125 18.2078 59.53 18.8723Z" fill="black"/>
<path fill-rule="evenodd" clip-rule="evenodd" d="M38.6203 47.5103L35.89 50.2406L34 48.3505L36.7302 45.6203L34 42.89L35.89 41L38.6203 43.7302L41.3505 41L43.2406 42.89L40.5103 45.6203L43.2406 48.3505L41.3505 50.2406L38.6203 47.5103Z" fill="#E3FF3A"/>
<path fill-rule="evenodd" clip-rule="evenodd" d="M61.6203 47.5103L58.89 50.2406L57 48.3505L59.7302 45.6203L57 42.89L58.89 41L61.6203 43.7302L64.3505 41L66.2406 42.89L63.5103 45.6203L66.2406 48.3505L64.3505 50.2406L61.6203 47.5103Z" fill="#E3FF3A"/>
<path d="M42 57H58V60H42V57Z" fill="#E3FF3A"/>
<path d="M50 54L46.5359 50.25L53.4641 50.25L50 54Z" fill="#E3FF3A"/>
<defs>
<linearGradient id="paint0_linear_428_1694" x1="91" y1="105.5" x2="-32.5" y2="-46" gradientUnits="userSpaceOnUse">
<stop stop-color="#5E5E5E"/>
<stop offset="1" stop-color="#E3FF3A"/>
</linearGradient>
</defs>
</svg>
