<svg width="102" height="100" viewBox="0 0 102 100" fill="none" xmlns="http://www.w3.org/2000/svg">
<rect x="1" width="101" height="100" rx="5" fill="url(#paint0_linear_428_1694)"/>
<path d="M13.7016 89.0003V83.5203L13.6016 82.5203L13.7016 81.9203H15.9116V89.0003H13.7016Z" fill="black"/>
<path d="M17.3074 89.0003V83.5303L17.1074 82.5303L17.3174 81.9303H19.6474L21.6074 85.4303H21.8074L23.4274 81.9303H25.8174L25.9174 82.5303L25.8174 83.4903V89.0003H23.6074L23.6374 88.1503V85.3603H23.5274L23.1474 86.4103L22.4274 88.0003H20.8274L19.6474 85.3603H19.5474V86.1703L19.6474 89.0003H17.3074Z" fill="black"/>
<path d="M26.6172 89.0003L27.0972 87.3103V86.0403L27.8372 85.7403L29.2372 81.9303H32.2472L33.9572 86.4103L34.7272 87.8303V89.0003H32.5572L32.0572 87.5103H29.3472L28.9172 89.0003H26.6172ZM30.0072 85.7603H31.5072L30.8472 83.7703H30.6372L30.0072 85.7603Z" fill="black"/>
<path d="M38.9724 89.1003C38.3924 89.1003 37.8591 89.0503 37.3724 88.9503C36.8858 88.8436 36.4624 88.657 36.1024 88.3903C35.7424 88.1236 35.4624 87.7536 35.2624 87.2803C35.0691 86.807 34.9724 86.2003 34.9724 85.4603C34.9724 84.727 35.0758 84.1236 35.2824 83.6503C35.4891 83.177 35.7691 82.807 36.1224 82.5403C36.4824 82.2736 36.8891 82.087 37.3424 81.9803C37.7958 81.8736 38.2691 81.8203 38.7624 81.8203C39.0891 81.8203 39.3891 81.837 39.6624 81.8703C39.9358 81.9036 40.1824 81.947 40.4024 82.0003L41.7624 82.7903L41.0624 84.5503L38.8524 83.8803C38.5658 83.8803 38.3024 83.927 38.0624 84.0203C37.8224 84.107 37.6291 84.267 37.4824 84.5003C37.3424 84.727 37.2724 85.0503 37.2724 85.4703C37.2724 86.1103 37.4091 86.5603 37.6824 86.8203C37.9624 87.0736 38.3558 87.2003 38.8624 87.2003C39.0558 87.2003 39.2158 87.1903 39.3424 87.1703C39.4691 87.1436 39.5758 87.1136 39.6624 87.0803V86.5303H38.7924V84.9503H41.9724L42.0824 85.5503L41.8624 86.5803V88.6803C41.7891 88.707 41.6224 88.7536 41.3624 88.8203C41.1091 88.887 40.7791 88.9503 40.3724 89.0103C39.9658 89.0703 39.4991 89.1003 38.9724 89.1003Z" fill="black"/>
<path d="M43.1668 89.0003L42.9668 88.4003L43.1668 87.4003V81.9203H48.3168L48.8168 82.2203L48.1568 83.9203L47.2568 83.8203H45.3868V84.6203H47.8568V86.2703H46.4768L45.3868 86.1703V87.1003H48.1568L49.3468 88.3603L48.7568 89.0003H43.1668Z" fill="black"/>
<path d="M52.5516 89.0003L52.3516 88.4003L52.5516 87.4003V81.9203H57.7016L58.2016 82.2203L57.5416 83.9203L56.6416 83.8203H54.7716V84.6203H57.2416V86.2703H55.8616L54.7716 86.1703V87.1003H57.5416L58.7316 88.3603L58.1416 89.0003H52.5516Z" fill="black"/>
<path d="M59.534 89.0003V83.5303L59.334 82.5203L59.534 81.9203H63.134C63.674 81.9203 64.1373 82.007 64.524 82.1803C64.9107 82.3536 65.2073 82.6336 65.414 83.0203C65.6207 83.4003 65.724 83.9036 65.724 84.5303C65.724 85.1103 65.6273 85.587 65.434 85.9603C65.2407 86.3336 64.9573 86.617 64.584 86.8103L64.754 86.9503L65.444 87.8903L66.014 88.4003V89.0003H63.364L62.264 87.1703H61.734V87.3903L61.834 88.3903L61.734 89.0003H59.534ZM61.734 85.3003H62.314C62.5473 85.3003 62.7473 85.2903 62.914 85.2703C63.0873 85.2503 63.2207 85.1903 63.314 85.0903C63.4073 84.9836 63.454 84.8136 63.454 84.5803C63.454 84.3336 63.404 84.157 63.304 84.0503C63.204 83.9436 63.064 83.8803 62.884 83.8603C62.7107 83.8336 62.5073 83.8203 62.274 83.8203H61.634L61.734 85.3003Z" fill="black"/>
<path d="M66.9168 89.0003V83.5303L66.7168 82.5203L66.9168 81.9203H70.5168C71.0568 81.9203 71.5201 82.007 71.9068 82.1803C72.2935 82.3536 72.5901 82.6336 72.7968 83.0203C73.0035 83.4003 73.1068 83.9036 73.1068 84.5303C73.1068 85.1103 73.0101 85.587 72.8168 85.9603C72.6235 86.3336 72.3401 86.617 71.9668 86.8103L72.1368 86.9503L72.8268 87.8903L73.3968 88.4003V89.0003H70.7468L69.6468 87.1703H69.1168V87.3903L69.2168 88.3903L69.1168 89.0003H66.9168ZM69.1168 85.3003H69.6968C69.9301 85.3003 70.1301 85.2903 70.2968 85.2703C70.4701 85.2503 70.6035 85.1903 70.6968 85.0903C70.7901 84.9836 70.8368 84.8136 70.8368 84.5803C70.8368 84.3336 70.7868 84.157 70.6868 84.0503C70.5868 83.9436 70.4468 83.8803 70.2668 83.8603C70.0935 83.8336 69.8901 83.8203 69.6568 83.8203H69.0168L69.1168 85.3003Z" fill="black"/>
<path d="M77.381 89.1003C76.9544 89.1003 76.5277 89.0503 76.101 88.9503C75.681 88.8436 75.2943 88.657 74.941 88.3903C74.5943 88.1236 74.3144 87.7536 74.101 87.2803C73.8877 86.807 73.781 86.2003 73.781 85.4603C73.781 84.7203 73.8877 84.1136 74.101 83.6403C74.3144 83.167 74.5943 82.797 74.941 82.5303C75.2943 82.2636 75.681 82.0803 76.101 81.9803C76.5277 81.8736 76.9544 81.8203 77.381 81.8203C77.8077 81.8203 78.231 81.8736 78.651 81.9803C79.0777 82.087 79.4644 82.2736 79.811 82.5403C80.1644 82.807 80.4477 83.177 80.661 83.6503C80.8744 84.1236 80.981 84.727 80.981 85.4603C80.981 86.1936 80.8744 86.797 80.661 87.2703C80.4477 87.7436 80.1644 88.1136 79.811 88.3803C79.4644 88.647 79.0777 88.8336 78.651 88.9403C78.231 89.047 77.8077 89.1003 77.381 89.1003ZM77.381 87.1003C77.8144 87.1003 78.141 86.9703 78.361 86.7103C78.581 86.4436 78.691 86.027 78.691 85.4603C78.691 84.9003 78.581 84.487 78.361 84.2203C78.141 83.9536 77.8144 83.8203 77.381 83.8203C76.5144 83.8203 76.081 84.367 76.081 85.4603C76.081 86.0203 76.1877 86.4336 76.401 86.7003C76.621 86.967 76.9477 87.1003 77.381 87.1003Z" fill="black"/>
<path d="M82.1219 89.0003V83.5303L81.9219 82.5203L82.1219 81.9203H85.7219C86.2619 81.9203 86.7252 82.007 87.1119 82.1803C87.4985 82.3536 87.7952 82.6336 88.0019 83.0203C88.2085 83.4003 88.3119 83.9036 88.3119 84.5303C88.3119 85.1103 88.2152 85.587 88.0219 85.9603C87.8285 86.3336 87.5452 86.617 87.1719 86.8103L87.3419 86.9503L88.0319 87.8903L88.6019 88.4003V89.0003H85.9519L84.8519 87.1703H84.3219V87.3903L84.4219 88.3903L84.3219 89.0003H82.1219ZM84.3219 85.3003H84.9019C85.1352 85.3003 85.3352 85.2903 85.5019 85.2703C85.6752 85.2503 85.8085 85.1903 85.9019 85.0903C85.9952 84.9836 86.0419 84.8136 86.0419 84.5803C86.0419 84.3336 85.9919 84.157 85.8919 84.0503C85.7919 83.9436 85.6519 83.8803 85.4719 83.8603C85.2985 83.8336 85.0952 83.8203 84.8619 83.8203H84.2219L84.3219 85.3003Z" fill="black"/>
<path fill-rule="evenodd" clip-rule="evenodd" d="M60.53 18.8723C62.5113 12.0895 65.5481 4.83266 68.637 9.46012C73.6034 16.9001 74.8989 20.8285 76.7077 27.0451C81.5521 31.3912 84.7883 36.9863 85.6335 43.1817C87.0019 45.5222 88.7839 46.8347 93.2433 49.3827L90.0074 51.9104C90.9512 52.4958 92.0197 53.1174 93.2433 53.8166L88.7349 56.3361L91.7654 58.7033C87.614 58.7033 83.7517 60.4615 78.4067 64.1633C72.09 70.7653 62.3258 75 51.368 75C41.1157 75 31.9083 71.293 25.5916 65.4085C19.3086 60.8547 15.0702 58.7033 10.4779 58.7033L13.5084 56.3361L9 53.8166C10.2236 53.1174 11.2922 52.4958 12.2359 51.9104L9 49.3827C14.2813 46.3651 15.8074 45.0804 17.3386 41.7687C18.3593 36.6098 21.0476 31.9159 24.9296 28.0795C26.9086 21.2449 28.0642 17.3042 33.3003 9.46012C36.4163 4.79222 39.4791 12.2172 41.4591 19.05C44.5975 18.2712 47.9238 17.8529 51.368 17.8529C54.5403 17.8529 57.6125 18.2078 60.53 18.8723Z" fill="black"/>
<path fill-rule="evenodd" clip-rule="evenodd" d="M39.6203 47.5103L36.89 50.2406L35 48.3505L37.7302 45.6203L35 42.89L36.89 41L39.6203 43.7302L42.3505 41L44.2406 42.89L41.5103 45.6203L44.2406 48.3505L42.3505 50.2406L39.6203 47.5103Z" fill="#E3FF3A"/>
<path fill-rule="evenodd" clip-rule="evenodd" d="M62.6203 47.5103L59.89 50.2406L58 48.3505L60.7302 45.6203L58 42.89L59.89 41L62.6203 43.7302L65.3505 41L67.2406 42.89L64.5103 45.6203L67.2406 48.3505L65.3505 50.2406L62.6203 47.5103Z" fill="#E3FF3A"/>
<path d="M43 57H59V60H43V57Z" fill="#E3FF3A"/>
<path d="M51 54L47.5359 50.25L54.4641 50.25L51 54Z" fill="#E3FF3A"/>
<rect width="101" height="100" rx="5" fill="url(#paint1_linear_428_1694)"/>
<path fill-rule="evenodd" clip-rule="evenodd" d="M31.1145 13.5691C34.463 8.55273 37.7545 16.5323 39.8822 23.875C43.2546 23.0383 46.8289 22.5887 50.53 22.5887C53.9387 22.5887 57.2399 22.9701 60.3749 23.684C62.5041 16.395 65.7675 8.59619 69.087 13.5691C74.424 21.5643 75.8162 25.7858 77.76 32.4664C82.966 37.1367 86.4439 43.1492 87.3524 49.8069C88.823 52.3224 90.738 53.7328 95.5305 56.4712L92.0524 59.1879C93.0668 59.8171 94.2153 60.4853 95.5305 61.2367L90.6867 63.9436L93.9437 66.4878C89.4812 66.4878 85.3295 68.3783 79.583 72.3588C72.7948 79.4514 62.3035 84.0006 50.53 84.0006C39.5159 84.0006 29.624 80.0194 22.8362 73.6991C16.08 68.8015 11.5236 66.4878 6.58675 66.4878L9.84376 63.9436L5 61.2367C6.31521 60.4853 7.46371 59.8171 8.47805 59.1879L5 56.4712C10.676 53.228 12.3157 51.8475 13.9613 48.2879C15.0585 42.7444 17.9474 37.7006 22.119 33.5781C24.2456 26.2334 25.4875 21.9986 31.1145 13.5691Z" fill="black"/>
<path fill-rule="evenodd" clip-rule="evenodd" d="M37.9026 54.459L34.9686 57.393L32.9375 55.362L35.8715 52.428L32.9375 49.494L34.9686 47.4629L37.9026 50.3969L40.8366 47.4629L42.8676 49.494L39.9337 52.428L42.8676 55.362L40.8366 57.393L37.9026 54.459Z" fill="#E3FF3A"/>
<path fill-rule="evenodd" clip-rule="evenodd" d="M62.6174 54.459L59.6834 57.393L57.6523 55.362L60.5863 52.428L57.6523 49.494L59.6834 47.4629L62.6174 50.3969L65.5514 47.4629L67.5825 49.494L64.6485 52.428L67.5825 55.362L65.5514 57.393L62.6174 54.459Z" fill="#E3FF3A"/>
<path d="M41.5352 64.6562H58.7292V67.8801H41.5352V64.6562Z" fill="#E3FF3A"/>
<path d="M50.1312 61.4336L46.4086 57.4037L53.8538 57.4037L50.1312 61.4336Z" fill="#E3FF3A"/>
<defs>
<linearGradient id="paint0_linear_428_1694" x1="92" y1="105.5" x2="-31.5" y2="-46" gradientUnits="userSpaceOnUse">
<stop stop-color="#5E5E5E"/>
<stop offset="1" stop-color="#E3FF3A"/>
</linearGradient>
<linearGradient id="paint1_linear_428_1694" x1="91" y1="105.5" x2="-32.5" y2="-46" gradientUnits="userSpaceOnUse">
<stop stop-color="#5E5E5E"/>
<stop offset="1" stop-color="#E3FF3A"/>
</linearGradient>
</defs>
</svg>
