<svg width="472" height="59" viewBox="0 0 472 59" fill="none" xmlns="http://www.w3.org/2000/svg">
<path d="M29.7598 58.0005V50.0005H0.799805V39.4406L23.6798 1.36055H44.4798L46.0798 6.24055L44.4798 14.2405V37.0406H54.8798V49.2005L44.4798 50.0005V58.0005H29.7598ZM17.9198 37.0406H29.7598V17.2005H28.3198L17.9198 37.0406Z" fill="#E3FF3A"/>
<path d="M82.7429 58.8006C78.2096 58.8006 74.1296 57.8672 70.5029 56.0005C66.9296 54.1339 64.1029 51.0939 62.0229 46.8805C59.9429 42.6139 58.9029 36.8806 58.9029 29.6806C58.9029 22.5339 59.9429 16.8539 62.0229 12.6406C64.1029 8.37388 66.9296 5.30722 70.5029 3.44055C74.1296 1.52055 78.2096 0.560547 82.7429 0.560547C87.3296 0.560547 91.4096 1.52055 94.9829 3.44055C98.5563 5.36055 101.383 8.45388 103.463 12.7205C105.543 16.9339 106.583 22.5872 106.583 29.6806C106.583 36.7739 105.543 42.4539 103.463 46.7206C101.383 50.9872 98.5563 54.0805 94.9829 56.0005C91.4096 57.8672 87.3296 58.8006 82.7429 58.8006ZM82.7429 44.8805C85.6229 44.8805 87.7829 43.7606 89.2229 41.5206C90.7163 39.2806 91.4629 35.3339 91.4629 29.6806C91.4629 24.0272 90.7163 20.0805 89.2229 17.8405C87.7829 15.6005 85.6229 14.4805 82.7429 14.4805C79.9163 14.4805 77.7563 15.6272 76.2629 17.9205C74.7696 20.2139 74.0229 24.1339 74.0229 29.6806C74.0229 35.2272 74.7696 39.1472 76.2629 41.4406C77.7563 43.7339 79.9163 44.8805 82.7429 44.8805Z" fill="#E3FF3A"/>
<path d="M139.525 58.0005V50.0005H110.565V39.4406L133.445 1.36055H154.245L155.845 6.24055L154.245 14.2405V37.0406H164.645V49.2005L154.245 50.0005V58.0005H139.525ZM127.685 37.0406H139.525V17.2005H138.085L127.685 37.0406Z" fill="#E3FF3A"/>
<path d="M191.087 58.0005L189.487 53.2005L191.087 45.2005V1.36055H230.687L234.687 3.76055L229.407 14.9605L222.207 14.1605H205.487V22.9606H227.007V35.3605H217.567L205.487 34.5605V45.2005H229.407L238.927 52.8805L234.207 58.0005H191.087Z" fill="#E3FF3A"/>
<path d="M246.165 58.0005V14.2405L244.565 6.16055L246.165 1.36055H271.765C275.659 1.36055 279.152 1.97388 282.245 3.20055C285.392 4.37388 287.872 6.40055 289.685 9.28055C291.552 12.1072 292.485 16.0272 292.485 21.0406C292.485 25.5739 291.659 29.2539 290.005 32.0806C288.352 34.8539 286.059 36.9339 283.125 38.3205L283.925 39.2005L291.845 49.1206L296.405 53.2005V58.0005H278.405L267.205 40.9605H260.565V45.1205L261.365 53.1206L260.565 58.0005H246.165ZM260.565 28.4006H268.405C271.179 28.4006 273.392 27.8939 275.045 26.8805C276.699 25.8139 277.525 23.8672 277.525 21.0406C277.525 19.0672 277.125 17.6006 276.325 16.6406C275.525 15.6272 274.405 14.9605 272.965 14.6405C271.579 14.3205 269.952 14.1605 268.085 14.1605H259.765L260.565 28.4006Z" fill="#E3FF3A"/>
<path d="M303.587 58.0005V14.2405L301.987 6.16055L303.587 1.36055H329.187C333.081 1.36055 336.574 1.97388 339.667 3.20055C342.814 4.37388 345.294 6.40055 347.107 9.28055C348.974 12.1072 349.907 16.0272 349.907 21.0406C349.907 25.5739 349.081 29.2539 347.427 32.0806C345.774 34.8539 343.481 36.9339 340.547 38.3205L341.347 39.2005L349.267 49.1206L353.827 53.2005V58.0005H335.827L324.627 40.9605H317.987V45.1205L318.787 53.1206L317.987 58.0005H303.587ZM317.987 28.4006H325.827C328.601 28.4006 330.814 27.8939 332.467 26.8805C334.121 25.8139 334.947 23.8672 334.947 21.0406C334.947 19.0672 334.547 17.6006 333.747 16.6406C332.947 15.6272 331.827 14.9605 330.387 14.6405C329.001 14.3205 327.374 14.1605 325.507 14.1605H317.187L317.987 28.4006Z" fill="#E3FF3A"/>
<path d="M384.148 58.8006C380.735 58.8006 377.401 58.4005 374.148 57.6005C370.948 56.7472 368.041 55.2539 365.428 53.1206C362.868 50.9872 360.815 48.0272 359.268 44.2405C357.775 40.4539 357.028 35.6006 357.028 29.6806C357.028 23.7605 357.775 18.9072 359.268 15.1206C360.815 11.3339 362.868 8.37388 365.428 6.24055C368.041 4.10721 370.948 2.64055 374.148 1.84055C377.401 0.987214 380.735 0.560547 384.148 0.560547C387.561 0.560547 390.868 0.987214 394.068 1.84055C397.321 2.69388 400.228 4.18721 402.788 6.32055C405.401 8.45388 407.455 11.4139 408.948 15.2005C410.495 18.9872 411.268 23.8139 411.268 29.6806C411.268 35.5472 410.495 40.3739 408.948 44.1605C407.455 47.9472 405.401 50.9072 402.788 53.0406C400.228 55.1739 397.321 56.6672 394.068 57.5205C390.868 58.3739 387.561 58.8006 384.148 58.8006ZM384.148 45.2005C388.095 45.2005 391.081 44.0272 393.108 41.6805C395.135 39.3339 396.148 35.3339 396.148 29.6806C396.148 24.0272 395.135 20.0272 393.108 17.6806C391.081 15.3339 388.095 14.1605 384.148 14.1605C380.255 14.1605 377.295 15.3605 375.268 17.7605C373.241 20.1605 372.228 24.1339 372.228 29.6806C372.228 35.2272 373.241 39.2006 375.268 41.6005C377.295 44.0005 380.255 45.2005 384.148 45.2005Z" fill="#E3FF3A"/>
<path d="M420.853 58.0005V14.2405L419.253 6.16055L420.853 1.36055H446.453C450.346 1.36055 453.84 1.97388 456.933 3.20055C460.08 4.37388 462.56 6.40055 464.373 9.28055C466.24 12.1072 467.173 16.0272 467.173 21.0406C467.173 25.5739 466.346 29.2539 464.693 32.0806C463.04 34.8539 460.746 36.9339 457.813 38.3205L458.613 39.2005L466.533 49.1206L471.093 53.2005V58.0005H453.093L441.893 40.9605H435.253V45.1205L436.053 53.1206L435.253 58.0005H420.853ZM435.253 28.4006H443.093C445.866 28.4006 448.08 27.8939 449.733 26.8805C451.386 25.8139 452.213 23.8672 452.213 21.0406C452.213 19.0672 451.813 17.6006 451.013 16.6406C450.213 15.6272 449.093 14.9605 447.653 14.6405C446.266 14.3205 444.64 14.1605 442.773 14.1605H434.453L435.253 28.4006Z" fill="#E3FF3A"/>
</svg>
