<svg width="15" height="18" viewBox="0 0 15 18" fill="none" xmlns="http://www.w3.org/2000/svg">
<path fill-rule="evenodd" clip-rule="evenodd" d="M1.76156 0C1.22878 0 0.796875 0.439528 0.796875 0.981715V13.354C0.796875 13.6995 0.975401 14.0196 1.26693 14.1968L7.29622 17.8611C7.60087 18.0463 7.98087 18.0463 8.28552 17.8611L14.3144 14.197C14.606 14.0198 14.7848 13.6995 14.7848 13.354V0.981717C14.7848 0.43953 14.3529 0 13.8201 0H1.76156ZM8.22617 2.40097C8.05145 2.02835 7.53025 2.02835 7.35552 2.40097L6.44491 4.343C6.37459 4.49297 6.2345 4.59654 6.07262 4.61826L3.97628 4.89948C3.57406 4.95343 3.413 5.45787 3.70724 5.74212L5.24079 7.22358C5.35921 7.33798 5.41272 7.50558 5.38299 7.66896L4.99799 9.78479C4.92413 10.1908 5.34579 10.5025 5.70236 10.3056L7.56076 9.27914C7.70426 9.19988 7.87743 9.19988 8.02093 9.27914L9.87933 10.3056C10.2359 10.5025 10.6576 10.1908 10.5837 9.78479L10.1987 7.66896C10.169 7.50558 10.2225 7.33798 10.3409 7.22358L11.8745 5.74213C12.1687 5.45787 12.0076 4.95343 11.6054 4.89948L9.50907 4.61826C9.34719 4.59654 9.2071 4.49297 9.13678 4.343L8.22617 2.40097Z" fill="url(#paint0_linear_250_2824)"/>
<defs>
<linearGradient id="paint0_linear_250_2824" x1="1.27922" y1="0.490858" x2="14.5388" y2="14.003" gradientUnits="userSpaceOnUse">
<stop stop-color="#E3FF3A"/>
<stop offset="1" stop-color="#888888"/>
</linearGradient>
</defs>
</svg>
