
<!-- 헤더 내 로고 -->
<svg xmlns="http://www.w3.org/2000/svg" width="53" height="40" viewBox="0 0 53 40" fill="none">
<path d="M0.535628 19V4.32062L0 1.63701L0.535628 0H8.51649C9.802 0 11.0339 0.125235 12.2123 0.375706C13.4086 0.608285 14.4709 1.05555 15.3993 1.71751C16.3456 2.37947 17.0865 3.32768 17.6222 4.56215C18.1756 5.79661 18.4524 7.39783 18.4524 9.36582C18.4524 11.3338 18.1756 12.9529 17.6222 14.2232C17.0687 15.4755 16.3188 16.4506 15.3725 17.1483C14.4263 17.846 13.355 18.3291 12.1588 18.5975C10.9804 18.8658 9.76629 19 8.51649 19H0.535628ZM5.40985 14.7062H8.51649C10.0877 14.7062 11.2928 14.2947 12.132 13.4718C12.9711 12.6309 13.3907 11.2622 13.3907 9.36582C13.3907 7.4694 12.9622 6.15442 12.1052 5.4209C11.266 4.66949 10.0698 4.29378 8.51649 4.29378H5.40985V14.7062Z" fill="#E3FF3A"/>
<path d="M21.4 19V4.29378L21.1322 1.61017L21.4 0H26.2475V19H21.4Z" fill="#E3FF3A"/>
<path d="M29.9847 19L29.4491 17.3898L29.9847 14.7062V0H43.2415L44.5806 0.805084L42.813 4.56215L40.4027 4.29378H34.8054V7.24576H42.0096V11.4054H38.8494L34.8054 11.137V14.7062H42.813L46 17.2825L44.4199 19H29.9847Z" fill="#E3FF3A"/>
<path d="M0.535628 40V25.3206L0 22.637L0.535628 21H8.51649C9.802 21 11.0339 21.1252 12.2123 21.3757C13.4086 21.6083 14.4709 22.0556 15.3993 22.7175C16.3456 23.3795 17.0865 24.3277 17.6222 25.5621C18.1756 26.7966 18.4524 28.3978 18.4524 30.3658C18.4524 32.3338 18.1756 33.9529 17.6222 35.2232C17.0687 36.4755 16.3188 37.4506 15.3725 38.1483C14.4263 38.846 13.355 39.3291 12.1588 39.5975C10.9804 39.8658 9.76629 40 8.51649 40H0.535628ZM5.40985 35.7062H8.51649C10.0877 35.7062 11.2928 35.2947 12.132 34.4718C12.9711 33.6309 13.3907 32.2622 13.3907 30.3658C13.3907 28.4694 12.9622 27.1544 12.1052 26.4209C11.266 25.6695 10.0698 25.2938 8.51649 25.2938H5.40985V35.7062Z" fill="#E3FF3A"/>
<path d="M21.4 40V25.2938L21.1322 22.6102L21.4 21H26.2475V40H21.4Z" fill="#E3FF3A"/>
<path d="M29.9847 40L29.4491 38.3898L29.9847 35.7062V21H43.2415L44.5806 21.8051L42.813 25.5621L40.4027 25.2938H34.8054V28.2458H42.0096V32.4054H38.8494L34.8054 32.137V35.7062H42.813L46 38.2825L44.4199 40H29.9847Z" fill="#E3FF3A"/>
<path fill-rule="evenodd" clip-rule="evenodd" d="M50 38.2272L48.2272 40L47 38.7728L48.7728 37L47 35.2272L48.2272 34L50 35.7728L51.7728 34L53 35.2272L51.2272 37L53 38.7728L51.7728 40L50 38.2272Z" fill="#E3FF3A"/>
<path fill-rule="evenodd" clip-rule="evenodd" d="M50 31.2272L48.2272 33L47 31.7728L48.7728 30L47 28.2272L48.2272 27L50 28.7728L51.7728 27L53 28.2272L51.2272 30L53 31.7728L51.7728 33L50 31.2272Z" fill="#E3FF3A"/>
</svg>