<svg width="330" height="55" viewBox="0 0 330 55" fill="none" xmlns="http://www.w3.org/2000/svg">
<rect width="330" height="55" rx="10" fill="#F9EB00"/>
<path d="M133.9 20.46C133.9 25.98 132.54 30.6 125.9 33.98L124.56 32.08C127.54 30.58 129.3 28.9 130.3 26.9L125.04 27.4L124.74 25.28L131.04 24.9C131.24 24.14 131.36 23.32 131.42 22.46H125.68V20.46H133.9ZM136.14 36.66V18.72H138.64V25.64H141.16V27.68H138.64V36.66H136.14ZM151.38 20.46C151.38 25.98 150.02 30.6 143.38 33.98L142.04 32.08C145.02 30.58 146.78 28.9 147.78 26.9L142.52 27.4L142.22 25.28L148.52 24.9C148.72 24.14 148.84 23.32 148.9 22.46H143.16V20.46H151.38ZM153.62 36.66V18.72H156.12V25.64H158.64V27.68H156.12V36.66H153.62ZM167.681 19.68C171.521 19.68 174.361 21.62 174.361 24.58C174.361 27.24 172.121 29.06 168.921 29.44V32.54H175.821V34.56H159.601V32.54H166.441V29.42C163.261 29.06 161.001 27.24 161.001 24.58C161.001 21.62 163.861 19.68 167.681 19.68ZM163.461 24.58C163.461 26.44 165.181 27.54 167.681 27.54C170.181 27.54 171.921 26.44 171.921 24.58C171.921 22.74 170.181 21.64 167.681 21.64C165.181 21.64 163.461 22.74 163.461 24.58ZM181.691 32.64H188.531V29.9H183.571V23.9H193.611V21.88H183.531V19.92H196.071V25.82H186.011V27.92H196.471V29.9H191.011V32.64H197.911V34.66H181.691V32.64ZM200.831 20.4H213.351V22.5C213.351 24.98 213.351 27.46 212.711 31.14L210.231 30.94C210.891 27.48 210.891 24.92 210.891 22.5V22.38H200.831V20.4ZM199.171 34.3V32.28H215.371V34.3H199.171ZM229.012 18.76H231.512V31.66H229.012V18.76ZM216.892 24.44C216.892 21.78 219.032 19.9 221.752 19.9C224.492 19.9 226.612 21.78 226.612 24.44C226.612 27.06 224.492 28.98 221.752 28.98C219.032 28.98 216.892 27.06 216.892 24.44ZM219.312 24.44C219.312 25.9 220.392 26.82 221.752 26.82C223.132 26.82 224.192 25.9 224.192 24.44C224.192 22.94 223.132 22.04 221.752 22.04C220.392 22.04 219.312 22.94 219.312 24.44ZM219.612 36.34V30.36H222.072V34.36H231.952V36.34H219.612Z" fill="black"/>
<g clip-path="url(#clip0_545_1658)">
<path d="M100 18C93.3724 18 88 22.0452 88 27.0354C88 30.2837 90.2765 33.1299 93.6926 34.7227C93.4414 35.6156 92.7837 37.9561 92.6519 38.457C92.4897 39.0788 92.8913 39.0705 93.1542 38.9029C93.3606 38.772 96.4428 36.7767 97.7726 35.9152C98.4943 36.017 99.2385 36.0709 100 36.0709C106.628 36.0709 112 32.0251 112 27.0354C112 22.0458 106.628 18 100 18Z" fill="#391B1B"/>
</g>
<defs>
<clipPath id="clip0_545_1658">
<rect width="24" height="21" fill="white" transform="translate(88 18)"/>
</clipPath>
</defs>
</svg>
