<!-- 메인 메뉴 언어 변환 로고 한국어-->
<svg width="55" height="32" viewBox="0 0 55 32" fill="none" xmlns="http://www.w3.org/2000/svg">
<path fill-rule="evenodd" clip-rule="evenodd" d="M24.3436 24.5518C23.9271 25.6115 23.4378 26.5807 22.8907 27.4408C21.3075 29.93 19.3626 31.349 17.3932 31.6786V24.5518H24.3436ZM10.1093 27.4408C11.6925 29.93 13.6374 31.349 15.6068 31.6786V24.5518H8.65644C9.07292 25.6115 9.56222 26.5807 10.1093 27.4408ZM24.9544 22.7514H17.3932V16.9002H25.8629C25.7909 18.9962 25.4695 20.9697 24.9544 22.7514ZM15.6068 22.7514V16.9002H7.13708C7.20905 18.9962 7.53047 20.9697 8.04558 22.7514H15.6068ZM25.8629 15.0998H17.3932V9.24856H24.9544C25.4695 11.0303 25.7909 13.0038 25.8629 15.0998ZM15.6068 15.0998V9.24856H8.04558C7.53047 11.0303 7.20905 13.0038 7.13708 15.0998H15.6068ZM24.3436 7.44817H17.3932V0.321359C19.3626 0.650978 21.3075 2.07001 22.8907 4.55923C23.4378 5.41932 23.9271 6.38855 24.3436 7.44817ZM15.6068 7.44817V0.321359C13.6374 0.650978 11.6925 2.07001 10.1093 4.55923C9.56222 5.41932 9.07292 6.38855 8.65644 7.44817H15.6068ZM31.6095 22.7514C32.4043 20.9472 32.8904 18.974 33 16.9002H27.6503C27.5839 18.9648 27.2907 20.9354 26.809 22.7514H31.6095ZM30.6816 24.5518H26.2524C25.0901 27.8216 23.2818 30.4466 21.0991 32C25.1492 30.8195 28.5592 28.1193 30.6816 24.5518ZM11.9009 32C7.85079 30.8195 4.44076 28.1193 2.31837 24.5518H6.74756C7.90993 27.8216 9.71823 30.4466 11.9009 32ZM1.39053 22.7514C0.595654 20.9472 0.109603 18.974 0 16.9002H5.34975C5.41608 18.9648 5.7093 20.9354 6.19099 22.7514H1.39053ZM4.59346e-09 15.0998H5.34975C5.41608 13.0352 5.7093 11.0646 6.19099 9.24856H1.39053C0.595654 11.0528 0.109603 13.026 4.59346e-09 15.0998ZM2.31837 7.44817C4.44076 3.88073 7.85079 1.18047 11.9009 0C9.71823 1.55338 7.90993 4.1784 6.74756 7.44817H2.31837ZM21.0991 1.02501e-06C25.1492 1.18047 28.5592 3.88073 30.6816 7.44817H26.2524C25.0901 4.1784 23.2818 1.55338 21.0991 1.02501e-06ZM31.6095 9.24856H26.809C27.2907 11.0646 27.5839 13.0352 27.6503 15.0998H33C32.8904 13.026 32.4043 11.0528 31.6095 9.24856Z" fill="#E3FF3A"/>
<rect x="28" y="15" width="27" height="17" rx="1" fill="#646464"/>
<path d="M32.2988 28V20.928L32.0388 19.615L32.2988 18.796H35.1588V20.356L35.0288 22.423H35.4188L37.3818 18.796H40.4888V19.576L37.9148 23.229L40.0988 25.933L41.3858 27.22V28H37.9408L35.7048 24.815L35.1588 24.945V26.44L35.2888 27.22L35.1588 28H32.2988ZM46.6181 28.13C46.0634 28.13 45.5088 28.065 44.9541 27.935C44.4081 27.7963 43.9054 27.5537 43.4461 27.207C42.9954 26.8603 42.6314 26.3793 42.3541 25.764C42.0768 25.1487 41.9381 24.36 41.9381 23.398C41.9381 22.436 42.0768 21.6473 42.3541 21.032C42.6314 20.4167 42.9954 19.9357 43.4461 19.589C43.9054 19.2423 44.4081 19.004 44.9541 18.874C45.5088 18.7353 46.0634 18.666 46.6181 18.666C47.1728 18.666 47.7231 18.7353 48.2691 18.874C48.8238 19.0127 49.3264 19.2553 49.7771 19.602C50.2364 19.9487 50.6048 20.4297 50.8821 21.045C51.1594 21.6603 51.2981 22.4447 51.2981 23.398C51.2981 24.3513 51.1594 25.1357 50.8821 25.751C50.6048 26.3663 50.2364 26.8473 49.7771 27.194C49.3264 27.5407 48.8238 27.7833 48.2691 27.922C47.7231 28.0607 47.1728 28.13 46.6181 28.13ZM46.6181 25.53C47.1814 25.53 47.6061 25.361 47.8921 25.023C48.1781 24.6763 48.3211 24.1347 48.3211 23.398C48.3211 22.67 48.1781 22.1327 47.8921 21.786C47.6061 21.4393 47.1814 21.266 46.6181 21.266C45.4914 21.266 44.9281 21.9767 44.9281 23.398C44.9281 24.126 45.0668 24.6633 45.3441 25.01C45.6301 25.3567 46.0548 25.53 46.6181 25.53Z" fill="#E3FF3A"/>
</svg>
