<svg width="350" height="64" viewBox="0 0 350 64" fill="none" xmlns="http://www.w3.org/2000/svg">
<path fill-rule="evenodd" clip-rule="evenodd" d="M1.78405 63.2666V14.3869L0 5.45093L1.78405 0H28.3664C32.6482 0 36.7515 0.417012 40.6764 1.25103C44.6608 2.02548 48.1991 3.51481 51.2915 5.71901C54.4433 7.92321 56.9113 11.0806 58.6953 15.1911C60.5388 19.3017 61.4606 24.6335 61.4606 31.1865C61.4606 37.7395 60.5388 43.1309 58.6953 47.3606C56.8518 51.5307 54.3541 54.7774 51.2023 57.1008C48.0505 59.4241 44.4824 61.0326 40.498 61.9262C36.5731 62.8198 32.5292 63.2666 28.3664 63.2666H1.78405ZM18.0189 48.9691H28.3664C33.5997 48.9691 37.6138 47.5989 40.4088 44.8585C43.2038 42.0586 44.6013 37.5012 44.6013 31.1865C44.6013 24.8717 43.1741 20.4931 40.3196 18.0506C37.5246 15.5486 33.5402 14.2975 28.3664 14.2975H18.0189V48.9691ZM71.2785 63.2666V14.2975L70.3864 5.36158L71.2785 0H87.4241V63.2666H71.2785ZM98.088 57.905L99.8721 63.2666H147.952L153.215 57.5476L142.6 48.9691H115.929V37.0842L129.398 37.9778H139.924V24.1271H115.929V14.2975H134.572L142.6 15.1911L148.488 2.68078L144.027 0H99.8721V48.9691L98.088 57.905ZM173.086 63.2666V14.3869L171.302 5.45093L173.086 0H199.668C203.95 0 208.053 0.417011 211.978 1.25103C215.962 2.02548 219.501 3.51481 222.593 5.71901C225.745 7.92321 228.213 11.0806 229.997 15.1911C231.84 19.3017 232.762 24.6335 232.762 31.1865C232.762 37.7395 231.84 43.1309 229.997 47.3606C228.153 51.5307 225.656 54.7774 222.504 57.1008C219.352 59.4241 215.784 61.0326 211.8 61.9262C207.875 62.8198 203.831 63.2666 199.668 63.2666H173.086ZM189.32 48.9691H199.668C204.901 48.9691 208.915 47.5989 211.71 44.8585C214.505 42.0586 215.903 37.5012 215.903 31.1865C215.903 24.8717 214.476 20.4931 211.621 18.0506C208.826 15.5486 204.842 14.2975 199.668 14.2975H189.32V48.9691ZM242.58 14.2975V63.2666H258.726V0H242.58L241.688 5.36158L242.58 14.2975ZM271.174 63.2666L269.39 57.905L271.174 48.9691V0H315.329L319.789 2.68079L313.902 15.1911L305.873 14.2975H287.23V24.1271H311.226V37.9778H300.7L287.23 37.0842V48.9691H313.902L324.517 57.5476L319.254 63.2666H271.174ZM340.058 57.145L334.183 63.0199L330.116 58.9529L335.991 53.0781L330.116 47.2032L334.183 43.1363L340.058 49.0112L345.933 43.1363L350 47.2032L344.125 53.0781L350 58.9529L345.933 63.0199L340.058 57.145ZM334.183 39.0553L340.058 33.1804L345.933 39.0553L350 34.9883L344.125 29.1135L350 23.2386L345.933 19.1717L340.058 25.0465L334.183 19.1717L330.116 23.2386L335.991 29.1135L330.116 34.9883L334.183 39.0553Z" fill="#E3FF3A"/>
</svg>
