<svg width="55" height="32" viewBox="0 0 55 32" fill="none" xmlns="http://www.w3.org/2000/svg">
<path fill-rule="evenodd" clip-rule="evenodd" d="M24.3436 24.5518C23.9271 25.6115 23.4378 26.5807 22.8907 27.4408C21.3075 29.93 19.3626 31.349 17.3932 31.6786V24.5518H24.3436ZM10.1093 27.4408C11.6925 29.93 13.6374 31.349 15.6068 31.6786V24.5518H8.65644C9.07292 25.6115 9.56222 26.5807 10.1093 27.4408ZM24.9544 22.7514H17.3932V16.9002H25.8629C25.7909 18.9962 25.4695 20.9697 24.9544 22.7514ZM15.6068 22.7514V16.9002H7.13708C7.20905 18.9962 7.53047 20.9697 8.04558 22.7514H15.6068ZM25.8629 15.0998H17.3932V9.24855H24.9544C25.4695 11.0303 25.7909 13.0038 25.8629 15.0998ZM15.6068 15.0998V9.24855H8.04558C7.53047 11.0303 7.20905 13.0038 7.13708 15.0998H15.6068ZM24.3436 7.44817H17.3932V0.321359C19.3626 0.650978 21.3075 2.07001 22.8907 4.55923C23.4378 5.41932 23.9271 6.38855 24.3436 7.44817ZM15.6068 7.44817V0.321359C13.6374 0.650978 11.6925 2.07001 10.1093 4.55923C9.56222 5.41932 9.07292 6.38855 8.65644 7.44817H15.6068ZM31.6095 22.7514C32.4043 20.9472 32.8904 18.974 33 16.9002H27.6503C27.5839 18.9648 27.2907 20.9354 26.809 22.7514H31.6095ZM30.6816 24.5518H26.2524C25.0901 27.8216 23.2818 30.4466 21.0991 32C25.1492 30.8195 28.5592 28.1193 30.6816 24.5518ZM11.9009 32C7.85079 30.8195 4.44076 28.1193 2.31837 24.5518H6.74756C7.90993 27.8216 9.71823 30.4466 11.9009 32ZM1.39053 22.7514C0.595654 20.9472 0.109603 18.974 0 16.9002H5.34975C5.41608 18.9648 5.7093 20.9354 6.19099 22.7514H1.39053ZM4.59346e-09 15.0998H5.34975C5.41608 13.0352 5.7093 11.0646 6.19099 9.24855H1.39053C0.595654 11.0528 0.109603 13.026 4.59346e-09 15.0998ZM2.31837 7.44817C4.44076 3.88073 7.85079 1.18047 11.9009 0C9.71823 1.55338 7.90993 4.1784 6.74756 7.44817H2.31837ZM21.0991 1.02501e-06C25.1492 1.18047 28.5592 3.88073 30.6816 7.44817H26.2524C25.0901 4.1784 23.2818 1.55338 21.0991 1.02501e-06ZM31.6095 9.24855H26.809C27.2907 11.0646 27.5839 13.0352 27.6503 15.0998H33C32.8904 13.026 32.4043 11.0528 31.6095 9.24855Z" fill="#36FF9F"/>
<rect x="28" y="15" width="27" height="17" rx="1" fill="#646464"/>
<path d="M32.3432 28L32.0832 27.22L32.3432 25.92V18.796H39.0382L39.6882 19.186L38.8302 21.396L37.6602 21.266H35.2292V22.306H38.4402V24.451H36.6462L35.2292 24.321V25.53H38.8302L40.3772 27.168L39.6102 28H32.3432ZM41.9204 28V20.889L41.6604 19.589L41.9204 18.809H44.5334L47.1594 22.085L47.7834 23.164H47.9134V18.809H50.9164V19.589L50.7864 20.889V28H48.1994L44.9364 23.554H44.8064V24.334L44.9364 28H41.9204Z" fill="#36FF9F"/>
</svg>
