<svg width="390" height="87" viewBox="0 0 390 87" fill="none" xmlns="http://www.w3.org/2000/svg">
<g filter="url(#filter0_d_1128_1866)">
<path fill-rule="evenodd" clip-rule="evenodd" d="M11.886 76.8818V25.209L10 15.7624L11.886 10H39.9874C44.5138 10 48.8516 10.4408 53.0008 11.3225C57.2128 12.1412 60.9534 13.7157 64.2225 16.0458C67.5544 18.376 70.1633 21.7138 72.0493 26.0592C73.9982 30.4046 74.9726 36.0411 74.9726 42.9686C74.9726 49.8961 73.9982 55.5955 72.0493 60.0669C70.1005 64.4753 67.4601 67.9076 64.1282 70.3637C60.7962 72.8198 57.0242 74.5202 52.8122 75.4648C48.663 76.4095 44.388 76.8818 39.9874 76.8818H11.886ZM29.0486 61.7673H39.9874C45.5196 61.7673 49.7631 60.3188 52.7179 57.4219C55.6726 54.4619 57.15 49.6442 57.15 42.9686C57.15 36.293 55.6412 31.6642 52.6236 29.0821C49.6688 26.4371 45.4568 25.1145 39.9874 25.1145H29.0486V61.7673ZM85.3515 76.8818V25.1145L84.4085 15.668L85.3515 10H102.42V76.8818H85.3515ZM113.693 71.2139L115.579 76.8818H166.407L171.97 70.836L160.749 61.7673H132.553V49.2033L146.792 50.148H157.92V35.5058H132.553V25.1145H152.262L160.749 26.0592L166.973 12.834L162.258 10H115.579V61.7673L113.693 71.2139ZM192.976 76.8818V25.209L191.09 15.7624L192.976 10H221.078C225.604 10 229.942 10.4408 234.091 11.3225C238.303 12.1412 242.044 13.7157 245.313 16.0458C248.645 18.376 251.254 21.7138 253.14 26.0592C255.088 30.4046 256.063 36.0411 256.063 42.9686C256.063 49.8961 255.088 55.5955 253.14 60.0669C251.191 64.4753 248.55 67.9076 245.218 70.3637C241.886 72.8198 238.114 74.5202 233.902 75.4648C229.753 76.4095 225.478 76.8818 221.078 76.8818H192.976ZM210.139 61.7673H221.078C226.61 61.7673 230.853 60.3188 233.808 57.4219C236.763 54.4619 238.24 49.6442 238.24 42.9686C238.24 36.293 236.731 31.6642 233.714 29.0821C230.759 26.4371 226.547 25.1145 221.078 25.1145H210.139V61.7673ZM266.442 25.1145V76.8818H283.51V10H266.442L265.499 15.668L266.442 25.1145ZM296.669 76.8818L294.783 71.2139L296.669 61.7673V10H343.348L348.063 12.834L341.839 26.0592L333.352 25.1145H313.643V35.5058H339.01V50.148H327.883L313.643 49.2033V61.7673H341.839L353.061 70.836L347.497 76.8818H296.669ZM369.49 70.4104L363.28 76.621L358.98 72.3217L365.191 66.1111L358.98 59.9006L363.28 55.6012L369.49 61.8118L375.701 55.6012L380 59.9006L373.789 66.1111L380 72.3217L375.701 76.621L369.49 70.4104ZM363.28 51.287L369.49 45.0764L375.701 51.287L380 46.9877L373.789 40.7771L380 34.5665L375.701 30.2672L369.49 36.4778L363.28 30.2672L358.98 34.5665L365.191 40.7771L358.98 46.9877L363.28 51.287Z" fill="#36FF9F"/>
</g>
<defs>
<filter id="filter0_d_1128_1866" x="0" y="0" width="390" height="86.8809" filterUnits="userSpaceOnUse" color-interpolation-filters="sRGB">
<feFlood flood-opacity="0" result="BackgroundImageFix"/>
<feColorMatrix in="SourceAlpha" type="matrix" values="0 0 0 0 0 0 0 0 0 0 0 0 0 0 0 0 0 0 127 0" result="hardAlpha"/>
<feOffset/>
<feGaussianBlur stdDeviation="5"/>
<feComposite in2="hardAlpha" operator="out"/>
<feColorMatrix type="matrix" values="0 0 0 0 0 0 0 0 0 0 0 0 0 0 0 0 0 0 1 0"/>
<feBlend mode="normal" in2="BackgroundImageFix" result="effect1_dropShadow_1128_1866"/>
<feBlend mode="normal" in="SourceGraphic" in2="effect1_dropShadow_1128_1866" result="shape"/>
</filter>
</defs>
</svg>
