<svg width="138" height="88" viewBox="0 0 138 88" fill="none" xmlns="http://www.w3.org/2000/svg">
<g id="Union" filter="url(#filter0_d_144_1851)">
<path fill-rule="evenodd" clip-rule="evenodd" d="M76.038 9.42582C75.8198 8.58785 75.0355 8 74.1357 8H63.8643C62.9645 8 62.1802 8.58785 61.962 9.42582L61.038 12.9742C60.8198 13.8121 60.0355 14.4 59.1357 14.4H50.9608C49.8779 14.4 49 15.2428 49 16.2824V38.1176C49 39.1572 49.8779 40 50.9608 40H87.0392C88.1221 40 89 39.1572 89 38.1176V16.2824C89 15.2428 88.1221 14.4 87.0392 14.4H78.8643C77.9645 14.4 77.1802 13.8121 76.962 12.9742L76.038 9.42582ZM79 27.2C79 32.5019 74.5229 36.8 69 36.8C63.4772 36.8 59 32.5019 59 27.2C59 21.8981 63.4772 17.6 69 17.6C74.5229 17.6 79 21.8981 79 27.2ZM69 33.6C72.6819 33.6 75.6667 30.7346 75.6667 27.2C75.6667 23.6654 72.6819 20.8 69 20.8C65.3181 20.8 62.3333 23.6654 62.3333 27.2C62.3333 30.7346 65.3181 33.6 69 33.6ZM82.3333 19.2C82.3333 20.0837 81.5871 20.8 80.6667 20.8C79.7462 20.8 79 20.0837 79 19.2C79 18.3163 79.7462 17.6 80.6667 17.6C81.5871 17.6 82.3333 18.3163 82.3333 19.2ZM8.6707 61.4576V80H18.6642C20.2292 80 21.7494 79.8305 23.225 79.4915C24.7229 79.1525 26.0643 78.5424 27.2492 77.661C28.4341 76.7797 29.3731 75.548 30.0661 73.9661C30.7592 72.3616 31.1057 70.3164 31.1057 67.8305C31.1057 65.3446 30.7592 63.322 30.0661 61.7627C29.3954 60.2034 28.4676 59.0056 27.2827 58.1695C26.1202 57.3333 24.7899 56.7684 23.292 56.4746C21.8165 56.1582 20.2739 56 18.6642 56H8.6707L8 58.0678L8.6707 61.4576ZM18.6642 74.5763H14.7741V61.4237H18.6642C20.6092 61.4237 22.1071 61.8983 23.1579 62.8475C24.231 63.774 24.7676 65.435 24.7676 67.8305C24.7676 70.226 24.2422 71.9548 23.1914 73.0169C22.1407 74.0565 20.6316 74.5763 18.6642 74.5763ZM34.7967 61.4237V80H40.8665V56H34.7967L34.4613 58.0339L34.7967 61.4237ZM45.5463 80L44.8756 77.9661L45.5463 74.5763V56H62.1462L63.8229 57.0169L61.6096 61.7627L58.5914 61.4237H51.5826V65.1525H60.6035V70.4068H56.6464L51.5826 70.0678V74.5763H61.6096L65.6003 77.8305L63.6217 80H45.5463ZM73.0704 61.4576V80H83.0639C84.6289 80 86.1491 79.8305 87.6247 79.4915C89.1226 79.1525 90.464 78.5424 91.6489 77.661C92.8338 76.7797 93.7728 75.548 94.4659 73.9661C95.1589 72.3616 95.5054 70.3164 95.5054 67.8305C95.5054 65.3446 95.1589 63.322 94.4659 61.7627C93.7952 60.2034 92.8673 59.0056 91.6824 58.1695C90.5199 57.3333 89.1896 56.7684 87.6917 56.4746C86.2162 56.1582 84.6736 56 83.0639 56H73.0704L72.3997 58.0678L73.0704 61.4576ZM83.0639 74.5763H79.1738V61.4237H83.0639C85.0089 61.4237 86.5068 61.8983 87.5576 62.8475C88.6307 63.774 89.1673 65.435 89.1673 67.8305C89.1673 70.226 88.6419 71.9548 87.5911 73.0169C86.5404 74.0565 85.0313 74.5763 83.0639 74.5763ZM99.1964 80V61.4237L98.861 58.0339L99.1964 56H105.266V80H99.1964ZM109.275 77.9661L109.946 80H128.021L130 77.8305L126.009 74.5763H115.982V70.0678L121.046 70.4068H125.003V65.1525H115.982V61.4237H122.991L126.009 61.7627L128.223 57.0169L126.546 56H109.946V74.5763L109.275 77.9661Z" fill="url(#paint0_linear_144_1851)"/>
</g>
<defs>
<filter id="filter0_d_144_1851" x="0" y="0" width="138" height="88" filterUnits="userSpaceOnUse" color-interpolation-filters="sRGB">
<feFlood flood-opacity="0" result="BackgroundImageFix"/>
<feColorMatrix in="SourceAlpha" type="matrix" values="0 0 0 0 0 0 0 0 0 0 0 0 0 0 0 0 0 0 127 0" result="hardAlpha"/>
<feOffset/>
<feGaussianBlur stdDeviation="4"/>
<feComposite in2="hardAlpha" operator="out"/>
<feColorMatrix type="matrix" values="0 0 0 0 0 0 0 0 0 0 0 0 0 0 0 0 0 0 0.5 0"/>
<feBlend mode="normal" in2="BackgroundImageFix" result="effect1_dropShadow_144_1851"/>
<feBlend mode="normal" in="SourceGraphic" in2="effect1_dropShadow_144_1851" result="shape"/>
</filter>
<linearGradient id="paint0_linear_144_1851" x1="18" y1="38.5" x2="112" y2="89" gradientUnits="userSpaceOnUse">
<stop stop-color="#C9C9C9"/>
<stop offset="0.0001" stop-color="#AFAFAF"/>
<stop offset="0.234375" stop-color="white"/>
<stop offset="0.578125" stop-color="#AFAFAF"/>
<stop offset="0.958333" stop-color="white"/>
</linearGradient>
</defs>
</svg>
