<!-- 메인 검색창 아이콘 -->
<svg xmlns="http://www.w3.org/2000/svg" width="29" height="31" viewBox="0 0 29 31" fill="none">
  <path fill-rule="evenodd" clip-rule="evenodd" d="M19.2472 6.78229C22.5171 10.3967 22.2378 15.9776 18.6234 19.2476C15.0089 22.5175 9.42802 22.2382 6.15808 18.6238C2.88814 15.0093 3.16743 9.42843 6.78188 6.15849C10.3963 2.88856 15.9772 3.16784 19.2472 6.78229ZM21.6849 20.3963C25.5086 15.9433 25.5125 9.23603 21.4719 4.76965C17.0904 -0.0734672 9.61235 -0.447689 4.76924 3.9338C-0.0738797 8.31529 -0.448101 15.7933 3.93339 20.6364C7.97392 25.1027 14.6478 25.7685 19.4602 22.4089L26.3235 29.9952C26.8792 30.6096 27.8278 30.657 28.4421 30.1013C29.0565 29.5455 29.1039 28.5969 28.5482 27.9826L21.6849 20.3963Z" fill="black"/>
</svg>