<svg width="45" height="45" viewBox="0 0 45 45" fill="none" xmlns="http://www.w3.org/2000/svg">
<path d="M45 22.5C45 34.9264 34.9264 45 22.5 45C10.0736 45 0 34.9264 0 22.5C0 10.0736 10.0736 0 22.5 0C34.9264 0 45 10.0736 45 22.5Z" fill="black"/>
<path fill-rule="evenodd" clip-rule="evenodd" d="M34.0726 14.0316C35.0148 14.8464 35.1462 16.3048 34.3661 17.289L22.8742 31.7869C22.4592 32.3105 21.8448 32.6169 21.1941 32.6248C20.5434 32.6328 19.9223 32.3414 19.4957 31.8281L11.7923 22.5589C10.9904 21.5941 11.0892 20.1329 12.0129 19.2953C12.9367 18.4577 14.3355 18.5609 15.1374 19.5257L21.1282 26.7343L30.9541 14.3381C31.7342 13.354 33.1304 13.2167 34.0726 14.0316Z" fill="#E3FF3A"/>
<path fill-rule="evenodd" clip-rule="evenodd" d="M12.375 16.2102L11.7102 16.875L11.25 16.4148L11.9148 15.75L11.25 15.0852L11.7102 14.625L12.375 15.2898L13.0398 14.625L13.5 15.0852L12.8352 15.75L13.5 16.4148L13.0398 16.875L12.375 16.2102Z" fill="#E3FF3A" fill-opacity="0.7"/>
<path fill-rule="evenodd" clip-rule="evenodd" d="M16.5 13.1136L15.6136 14L15 13.3864L15.8864 12.5L15 11.6136L15.6136 11L16.5 11.8864L17.3864 11L18 11.6136L17.1136 12.5L18 13.3864L17.3864 14L16.5 13.1136Z" fill="#E3FF3A" fill-opacity="0.7"/>
<path fill-rule="evenodd" clip-rule="evenodd" d="M31.5 33.0852L30.8352 33.75L30.375 33.2898L31.0398 32.625L30.375 31.9602L30.8352 31.5L31.5 32.1648L32.1648 31.5L32.625 31.9602L31.9602 32.625L32.625 33.2898L32.1648 33.75L31.5 33.0852Z" fill="#E3FF3A" fill-opacity="0.7"/>
</svg>
